<svg width="183" height="183" viewBox="0 0 183 183" fill="none" xmlns="http://www.w3.org/2000/svg">
<path d="M135.449 182.129C126.335 182.129 116.797 180.371 106.836 176.855C96.875 173.34 86.7513 168.132 76.4648 161.23C66.1784 154.395 56.0547 145.996 46.0938 136.035C36.0677 126.074 27.6042 115.951 20.7031 105.664C13.8672 95.3776 8.69141 85.2865 5.17578 75.3906C1.72526 65.4297 0 56.0221 0 47.168C0 41.6341 0.520833 36.7188 1.5625 32.4219C2.60417 28.0599 4.23177 24.0885 6.44531 20.5078C8.72396 16.862 11.6536 13.4115 15.2344 10.1562C15.5599 9.89583 15.918 9.60286 16.3086 9.27734C16.6992 8.88672 17.0898 8.52865 17.4805 8.20312C23.6003 2.73438 29.5898 0.0651042 35.4492 0.195312C38.8346 0.195312 42.0898 1.17188 45.2148 3.125C48.4049 5.07812 51.4323 8.07292 54.2969 12.1094L72.9492 38.9648C75.293 42.2852 76.3346 45.7682 76.0742 49.4141C75.8789 53.0599 74.8698 56.3802 73.0469 59.375L64.7461 72.3633C63.1836 74.9023 63.0208 77.2135 64.2578 79.2969C65.8203 81.9661 68.1315 85.1562 71.1914 88.8672C74.2513 92.5781 77.474 96.1263 80.8594 99.5117C83.0729 101.79 85.5469 104.134 88.2812 106.543C91.0156 108.952 93.5872 111.1 95.9961 112.988C98.4049 114.876 100.293 116.276 101.66 117.188C103.158 118.164 104.557 118.652 105.859 118.652C107.161 118.652 108.529 118.294 109.961 117.578L124.219 110.742C128.646 108.529 132.552 107.52 135.938 107.715C139.388 107.845 142.969 109.147 146.68 111.621L170.117 127.734C174.219 130.534 177.246 133.561 179.199 136.816C181.152 140.007 182.129 143.262 182.129 146.582C182.129 149.512 181.445 152.507 180.078 155.566C178.711 158.561 176.693 161.621 174.023 164.746C173.633 165.137 173.275 165.527 172.949 165.918C172.624 166.309 172.266 166.667 171.875 166.992C167.057 172.331 161.784 176.172 156.055 178.516C150.391 180.924 143.522 182.129 135.449 182.129ZM135.449 167.383C140.527 167.318 145.182 166.406 149.414 164.648C153.711 162.891 157.422 160.221 160.547 156.641C160.807 156.25 161.035 155.924 161.23 155.664C161.426 155.404 161.686 155.111 162.012 154.785C164.355 152.051 165.527 149.316 165.527 146.582C165.527 145.215 165.234 143.945 164.648 142.773C164.062 141.602 163.086 140.592 161.719 139.746L140.332 125.391C138.77 124.414 137.207 123.861 135.645 123.73C134.147 123.6 132.487 123.991 130.664 124.902L115.527 132.129C111.361 134.147 107.812 135.026 104.883 134.766C101.953 134.44 99.056 133.268 96.1914 131.25C94.1732 129.883 91.6667 127.962 88.6719 125.488C85.6771 123.014 82.5846 120.378 79.3945 117.578C76.2044 114.779 73.3398 112.109 70.8008 109.57C67.1549 105.924 63.4766 101.823 59.7656 97.2656C56.0547 92.7083 52.8971 88.6393 50.293 85.0586C48.2096 82.2591 47.0703 79.4922 46.875 76.7578C46.6797 74.0234 47.5586 71.0286 49.5117 67.7734L58.5938 52.9297C60.3516 49.9349 60.4818 47.3307 58.9844 45.1172L42.4805 20.4102C40.8529 17.8711 38.5417 16.6016 35.5469 16.6016C34.2448 16.6016 32.9102 16.9271 31.543 17.5781C30.1758 18.1641 28.776 19.0104 27.3438 20.1172C27.0833 20.3776 26.7904 20.638 26.4648 20.8984C26.2044 21.1589 25.9115 21.4193 25.5859 21.6797C22.0052 24.7396 19.3034 28.418 17.4805 32.7148C15.7227 37.0117 14.8112 41.6992 14.7461 46.7773C14.6159 54.5898 16.3737 63.0534 20.0195 72.168C23.6654 81.2174 28.7109 90.3646 35.1562 99.6094C41.6016 108.789 48.9583 117.513 57.2266 125.781C65.4948 133.984 74.1536 141.243 83.2031 147.559C92.3177 153.874 101.335 158.789 110.254 162.305C119.238 165.885 127.637 167.578 135.449 167.383Z" fill="#657C55"/>
</svg>
