<svg width="228" height="164" viewBox="0 0 228 164" fill="none" xmlns="http://www.w3.org/2000/svg">
<path d="M30.8594 163.281C20.8333 163.281 13.1836 160.677 7.91016 155.469C2.63672 150.326 0 142.741 0 132.715V30.5664C0 20.6055 2.53906 13.0208 7.61719 7.8125C12.6953 2.60417 19.7591 0 28.8086 0H196.777C206.803 0 214.453 2.60417 219.727 7.8125C225 13.0208 227.637 20.6055 227.637 30.5664V132.715C227.637 142.741 225.098 150.326 220.02 155.469C214.941 160.677 207.878 163.281 198.828 163.281H30.8594ZM31.1523 145.02H196.484C200.586 145.02 203.743 143.945 205.957 141.797C208.236 139.583 209.375 136.361 209.375 132.129V31.25C209.375 27.0182 208.236 23.7956 205.957 21.582C203.743 19.3034 200.586 18.1641 196.484 18.1641H31.1523C27.0508 18.1641 23.8607 19.3034 21.582 21.582C19.3685 23.7956 18.2617 26.9857 18.2617 31.1523V132.031C18.2617 136.328 19.3685 139.583 21.582 141.797C23.8607 143.945 27.0508 145.02 31.1523 145.02ZM113.77 107.324C110.514 107.324 107.389 106.706 104.395 105.469C101.465 104.232 98.5677 102.311 95.7031 99.707L9.66797 22.168L21.2891 10.4492L105.762 86.5234C108.301 88.8672 110.97 90.0391 113.77 90.0391C116.569 90.0391 119.271 88.8672 121.875 86.5234L206.348 10.4492L218.066 22.168L131.836 99.707C128.971 102.311 126.074 104.232 123.145 105.469C120.215 106.706 117.09 107.324 113.77 107.324ZM22.8516 149.414L11.2305 137.598L76.3672 72.5586L88.1836 84.082L22.8516 149.414ZM204.883 149.414L139.453 84.082L151.27 72.5586L216.504 137.695L204.883 149.414Z" fill="#657C55"/>
</svg>
