<svg width="190" height="190" viewBox="0 0 190 190" fill="none" xmlns="http://www.w3.org/2000/svg">
<path d="M94.9219 183.398C88.4766 183.398 82.3893 181.185 76.6602 176.758C70.9961 172.331 66.0156 166.146 61.7188 158.203C57.4219 150.26 54.0365 140.918 51.5625 130.176C49.1536 119.434 47.9492 107.747 47.9492 95.1172C47.9492 82.487 49.1536 70.7682 51.5625 59.9609C54.0365 49.1536 57.4219 39.7786 61.7188 31.8359C66.0156 23.8281 70.9961 17.6107 76.6602 13.1836C82.3242 8.75651 88.4115 6.54297 94.9219 6.54297C101.367 6.54297 107.422 8.75651 113.086 13.1836C118.75 17.6107 123.73 23.8281 128.027 31.8359C132.389 39.7786 135.775 49.1536 138.184 59.9609C140.658 70.7682 141.895 82.487 141.895 95.1172C141.895 107.747 140.658 119.434 138.184 130.176C135.71 140.918 132.324 150.26 128.027 158.203C123.73 166.146 118.75 172.331 113.086 176.758C107.422 181.185 101.367 183.398 94.9219 183.398ZM94.9219 18.2617C90.4297 18.2617 86.1328 20.3125 82.0312 24.4141C77.9297 28.5156 74.2839 34.1471 71.0938 41.3086C67.9036 48.4049 65.3646 56.5755 63.4766 65.8203C61.6536 75.0651 60.7422 84.8307 60.7422 95.1172C60.7422 105.208 61.6536 114.876 63.4766 124.121C65.3646 133.301 67.9036 141.471 71.0938 148.633C74.2839 155.794 77.9297 161.426 82.0312 165.527C86.1328 169.629 90.4297 171.68 94.9219 171.68C99.4141 171.68 103.678 169.629 107.715 165.527C111.816 161.426 115.462 155.794 118.652 148.633C121.842 141.471 124.349 133.301 126.172 124.121C128.06 114.876 129.004 105.208 129.004 95.1172C129.004 84.8307 128.06 75.0651 126.172 65.8203C124.349 56.5755 121.842 48.4049 118.652 41.3086C115.462 34.1471 111.816 28.5156 107.715 24.4141C103.678 20.3125 99.4141 18.2617 94.9219 18.2617ZM88.5742 7.8125H101.172V181.641H88.5742V7.8125ZM94.9219 128.32C104.492 128.32 113.542 129.134 122.07 130.762C130.664 132.324 138.379 134.57 145.215 137.5C152.051 140.365 157.585 143.783 161.816 147.754L152.246 155.762C146.191 151.009 138.249 147.363 128.418 144.824C118.652 142.22 107.487 140.918 94.9219 140.918C82.3568 140.918 71.1589 142.22 61.3281 144.824C51.4974 147.363 43.5547 151.009 37.5 155.762L27.9297 147.754C32.2266 143.783 37.7604 140.365 44.5312 137.5C51.3672 134.57 59.082 132.324 67.6758 130.762C76.2695 129.134 85.3516 128.32 94.9219 128.32ZM179.785 88.6719V101.172H9.96094V88.6719H179.785ZM94.9219 61.9141C85.3516 61.9141 76.2695 61.1328 67.6758 59.5703C59.082 58.0078 51.3672 55.7617 44.5312 52.832C37.7604 49.9023 32.2266 46.4518 27.9297 42.4805L37.5 34.5703C43.5547 39.3229 51.4974 42.9688 61.3281 45.5078C71.1589 48.0469 82.3568 49.3164 94.9219 49.3164C107.487 49.3164 118.652 48.0469 128.418 45.5078C138.249 42.9688 146.191 39.3229 152.246 34.5703L161.816 42.4805C157.585 46.4518 152.051 49.9023 145.215 52.832C138.379 55.7617 130.664 58.0078 122.07 59.5703C113.542 61.1328 104.492 61.9141 94.9219 61.9141ZM94.9219 189.844C81.7708 189.844 69.4661 187.37 58.0078 182.422C46.6146 177.539 36.556 170.736 27.832 162.012C19.1081 153.288 12.2721 143.197 7.32422 131.738C2.44141 120.28 0 108.008 0 94.9219C0 81.8359 2.44141 69.5638 7.32422 58.1055C12.2721 46.582 19.1081 36.4909 27.832 27.832C36.556 19.1081 46.6146 12.3047 58.0078 7.42188C69.4661 2.47396 81.7708 0 94.9219 0C108.008 0 120.28 2.47396 131.738 7.42188C143.197 12.3047 153.255 19.1081 161.914 27.832C170.638 36.4909 177.441 46.582 182.324 58.1055C187.272 69.5638 189.746 81.8359 189.746 94.9219C189.746 108.008 187.272 120.28 182.324 131.738C177.441 143.197 170.638 153.288 161.914 162.012C153.255 170.736 143.197 177.539 131.738 182.422C120.28 187.37 108.008 189.844 94.9219 189.844ZM94.9219 175.977C106.055 175.977 116.504 173.861 126.27 169.629C136.1 165.462 144.727 159.668 152.148 152.246C159.635 144.824 165.462 136.23 169.629 126.465C173.861 116.634 175.977 106.12 175.977 94.9219C175.977 83.724 173.861 73.2422 169.629 63.4766C165.462 53.6458 159.635 45.0195 152.148 37.5977C144.727 30.1758 136.1 24.3815 126.27 20.2148C116.504 15.9831 106.055 13.8672 94.9219 13.8672C83.724 13.8672 73.2096 15.9831 63.3789 20.2148C53.6133 24.3815 44.987 30.1758 37.5 37.5977C30.0781 45.0195 24.2513 53.6458 20.0195 63.4766C15.8529 73.2422 13.7695 83.724 13.7695 94.9219C13.7695 106.12 15.8529 116.634 20.0195 126.465C24.2513 136.23 30.0781 144.824 37.5 152.246C44.987 159.668 53.6133 165.462 63.3789 169.629C73.2096 173.861 83.724 175.977 94.9219 175.977Z" fill="#657C55"/>
</svg>
